<svg width="98" height="52" viewBox="0 0 98 52" xmlns="http://www.w3.org/2000/svg"><g fill="#000" fill-rule="evenodd"><g fill-rule="nonzero"><path d="M5.756 14.036l2.101 2.14c-2.173 2.135-3.623 4.401-4.303 6.721l-.101.367-2.906-.748c.776-3.013 2.552-5.872 5.209-8.48zM23.576 4.241l.902 2.861c-5.329 1.682-9.916 3.879-13.464 6.436l-.438.322-1.796-2.403c3.894-2.91 8.94-5.368 14.796-7.216zM47.825.5l.054 3c-6.79.122-13.336.962-19.288 2.445l-.846.216-.76-2.902C33.395 1.581 40.477.632 47.825.5zM92.67 14.036l-2.101 2.14c2.173 2.135 3.624 4.401 4.303 6.721l.101.367 2.906-.748c-.776-3.013-2.552-5.872-5.209-8.48zM74.85 4.241l-.902 2.861c5.329 1.682 9.916 3.879 13.464 6.436l.438.322 1.796-2.403c-3.893-2.91-8.94-5.368-14.796-7.216zM50.601.5l-.054 3c6.79.122 13.336.962 19.288 2.445l.846.216.76-2.902C65.031 1.581 57.95.632 50.601.5zM5.756 37.964l2.101-2.14c-2.173-2.135-3.623-4.401-4.303-6.721l-.101-.367-2.906.748c.776 3.013 2.552 5.872 5.209 8.48zM23.576 47.759l.902-2.861c-5.329-1.682-9.916-3.879-13.464-6.436l-.438-.322-1.796 2.403c3.894 2.91 8.94 5.368 14.796 7.216zM47.825 51.5l.054-3c-6.79-.122-13.336-.962-19.288-2.445l-.846-.216-.76 2.902c6.41 1.678 13.492 2.627 20.84 2.759zM92.67 37.964l-2.101-2.14c2.173-2.135 3.624-4.401 4.303-6.721l.101-.367 2.906.748c-.776 3.013-2.552 5.872-5.209 8.48zM74.85 47.759l-.902-2.861c5.329-1.682 9.916-3.879 13.464-6.436l.438-.322 1.796 2.403c-3.893 2.91-8.94 5.368-14.796 7.216zM50.601 51.5l-.054-3c6.79-.122 13.336-.962 19.288-2.445l.846-.216.76 2.902c-6.41 1.678-13.492 2.627-20.84 2.759z"/></g><path d="M61.159 24.504c14.02 0 20.615 0 30.732-.004-.789-6.629-8.72-12.468-20.269-15.706-2.061 1.766-11.14 9.316-14.827 12.484 1.793.813 3.226 1.35 4.364 3.226zM40.996 30.602c-2.045-.884-3.476-1.935-4.042-3.102-1.056 0-26.431 0-28.782.039C9.53 33.6 16.924 38.847 27.455 41.964c4.236-3.528 8.255-6.948 13.541-11.362z"/></g></svg>
