<?xml version="1.0" encoding="utf-8"?>
<!-- Generator: Adobe Illustrator 13.0.0, SVG Export Plug-In  -->
<!DOCTYPE svg PUBLIC "-//W3C//DTD SVG 1.1//EN" "http://www.w3.org/Graphics/SVG/1.1/DTD/svg11.dtd" [
	<!ENTITY ns_flows "http://ns.adobe.com/Flows/1.0/">
]>
<svg version="1.1"
	 xmlns="http://www.w3.org/2000/svg" xmlns:xlink="http://www.w3.org/1999/xlink" xmlns:a="http://ns.adobe.com/AdobeSVGViewerExtensions/3.0/"
	 x="0px" y="0px" width="162px" height="153px" viewBox="0 -0.333 162 153" enable-background="new 0 -0.333 162 153"
	 xml:space="preserve">
<defs>
</defs>
<polygon opacity="0" fill-rule="evenodd" clip-rule="evenodd" fill="#FFFFFF" points="0,0 161.333,0 161.333,152.422 0,152.422 0,0
	"/>
<path fill-rule="evenodd" clip-rule="evenodd" d="M34.243,36.278c0.704,1.93,0.493,3.727,1.479,8.719
	c1.268,6.655,6.481,20.898,8.102,27.087h0.211h9.299c1.691-6.189,6.834-20.433,8.102-27.087c0.986-4.992,0.775-6.79,1.479-8.719
	v35.807h9.299V28.957H57.278c-2.535,8.319-6.058,18.237-7.256,24.359c-1.127,5.723-1.127,8.119-1.409,11.647
	c-0.352-3.528-0.281-5.924-1.479-11.647c-0.564-3.062-1.761-7.055-3.1-11.314c-1.338-4.26-2.889-8.853-4.156-13.045H24.944v43.127
	h9.299V36.278L34.243,36.278z"/>
<path fill-rule="evenodd" clip-rule="evenodd" d="M138.574,39.539V29.156h-5.496h-5.494v10.382h5.494H138.574L138.574,39.539z
	 M130.754,36.544v-4.459h2.324h2.396v4.459h-2.396H130.754L130.754,36.544z"/>
<path fill-rule="evenodd" clip-rule="evenodd" d="M83.204,85.397h5.494h5.495V75.013h-5.495h-5.494V85.397L83.204,85.397z
	 M86.303,78.008h2.395h2.325v4.459h-2.325h-2.395V78.008L86.303,78.008z"/>
<path fill-rule="evenodd" clip-rule="evenodd" d="M49.53,75.013h-5.495H24.944v47.853h19.091h5.495
	c7.467,0,13.526-5.724,13.526-12.777v-3.261v-4.262v-7.188v-4.991v-2.529C63.056,80.804,56.997,75.013,49.53,75.013L49.53,75.013z
	 M53.686,86.594v1.796v21.965v1.264v2.063c0,0.732-0.634,1.332-1.41,1.332h-0.915h-2.606h-4.72h-9.651V83.732h9.651h4.72h2.606
	h0.915c0.775,0,1.41,0.6,1.41,1.331V86.594L53.686,86.594z"/>
<path fill-rule="evenodd" clip-rule="evenodd" d="M138.574,72.084V42.601h-5.496h-5.494v29.484h5.494H138.574L138.574,72.084z
	 M130.754,69.622V45.595h2.324h2.396v24.026h-2.396H130.754L130.754,69.622z"/>
<path fill-rule="evenodd" clip-rule="evenodd" d="M88.416,39.539V29.156h-5.424h-5.566v10.382h5.566H88.416L88.416,39.539z
	 M80.526,36.544v-4.459h2.466h2.254v4.459h-2.254H80.526L80.526,36.544z"/>
<path fill-rule="evenodd" clip-rule="evenodd" d="M123.779,85.397V75.013h-5.494h-5.495v10.384h5.495H123.779L123.779,85.397z
	 M115.89,82.467v-4.459h2.396h2.323v4.459h-2.323H115.89L115.89,82.467z"/>
<path fill-rule="evenodd" clip-rule="evenodd" d="M120.328,87.858c-0.705,0-1.409,0.066-2.043,0.267
	c-2.537,0.865-4.369,3.129-4.369,5.724c0,7.654,0,15.375,0,23.029c0,2.594,1.832,4.856,4.369,5.724
	c0.634,0.198,1.338,0.265,2.043,0.265h12.75h5.566v-9.717h-5.566h-8.594c0-5.191,0-10.382,0-15.573h8.594h5.566v-9.718h-5.566
	H120.328L120.328,87.858z M135.544,90.585v3.994h-2.466h-11.764c0,7.188,0,14.377,0,21.565h11.764h2.466v3.992h-2.466h-12.961
	c-0.705,0-1.339-0.266-1.832-0.599c-0.775-0.533-1.269-1.397-1.269-2.396c0-7.853,0-15.706,0-23.56c0-1,0.493-1.863,1.269-2.396
	c0.493-0.4,1.127-0.602,1.832-0.602h12.961H135.544L135.544,90.585z"/>
<path fill-rule="evenodd" clip-rule="evenodd" d="M140.194,7.792h-7.116h-14.793h-10.145h-4.58H88.698h-5.706h-9.017h-29.94H21.069
	c-8.313,0-15.075,6.455-15.075,14.309V130.32c0,7.921,6.762,14.31,15.075,14.31h22.965h29.94h9.017h5.706h14.863h4.58h10.145h14.793
	h7.116c8.313,0,15.146-6.455,15.146-14.31V22.101C155.34,14.248,148.507,7.792,140.194,7.792L140.194,7.792z M151.746,130.121
	c0,6.058-5.353,11.114-11.764,11.114h-6.904h-14.793h-10.145h-4.58H88.698h-5.706h-9.017h-29.94H21.351
	c-6.48,0-11.765-5.057-11.765-11.114V22.368c0-6.123,5.284-11.114,11.765-11.114h22.684h29.94h9.017h5.706h14.863h4.58h10.145
	h14.793h6.904c6.411,0,11.764,4.991,11.764,11.114V130.121L151.746,130.121z"/>
<path fill-rule="evenodd" clip-rule="evenodd" d="M127.653,75.013v10.384h5.425h5.566V75.013h-5.566H127.653L127.653,75.013z
	 M135.474,78.008v4.459h-2.396h-2.324v-4.459h2.324H135.474L135.474,78.008z"/>
<path fill-rule="evenodd" clip-rule="evenodd" d="M118.285,72.084h4.508V50.72c0-3.061-1.831-5.791-4.508-7.188
	c-1.269-0.6-2.605-0.932-4.086-0.932h-6.059h-4.58h-1.618c-4.72,0-8.666,3.661-8.666,8.12v21.364h10.284h0.494v-19.5h4.086h4.086
	v19.5H118.285L118.285,72.084z M108.141,49.656h-4.58h-2.605v19.966h-4.507V50.787c0-2.861,2.465-5.192,5.424-5.192h1.688h4.58
	h6.269c1.48,0,2.89,0.6,3.876,1.531c0.986,0.932,1.549,2.263,1.549,3.661v18.834h-1.549h-2.889V49.656H108.141L108.141,49.656z"/>
<path fill-rule="evenodd" clip-rule="evenodd" d="M68.48,87.858v35.008h5.495h5.494V87.858h-5.494H68.48L68.48,87.858z
	 M76.37,90.986v29.284h-2.395H71.65V90.986h2.325H76.37L76.37,90.986z"/>
<path fill-rule="evenodd" clip-rule="evenodd" d="M88.485,42.601h-5.493h-5.495v29.484h5.495h5.493V42.601L88.485,42.601z
	 M85.386,69.622h-2.394h-2.325V45.595h2.325h2.394V69.622L85.386,69.622z"/>
<path fill-rule="evenodd" clip-rule="evenodd" d="M108.141,85.397h0.916V75.013h-0.916h-4.58h-5.493v10.384h5.493H108.141
	L108.141,85.397z M101.168,82.467v-4.459h2.393h2.324v4.459h-2.324H101.168L101.168,82.467z"/>
<path fill-rule="evenodd" clip-rule="evenodd" d="M79.399,85.397V75.013h-5.424h-5.566v10.384h5.566H79.399L79.399,85.397z
	 M71.509,82.467v-4.459h2.466h2.254v4.459h-2.254H71.509L71.509,82.467z"/>
<path fill-rule="evenodd" clip-rule="evenodd" d="M108.141,102.036c-1.128-1-2.607-1.599-4.298-1.599h-0.282H93.7v-2.861h9.861h4.58
	h1.551v-9.718h-1.551h-4.58H89.543c-0.281,0-0.563,0-0.845,0c-3.099,0.467-5.494,2.996-5.494,5.99v0.267v9.915v0.201
	c0,3.062,2.395,5.591,5.494,5.989c0.282,0.066,0.564,0.066,0.845,0.066h10.145v2.862h-10.99h-4.931v9.717h4.931h14.863h0.282
	c1.69,0,3.17-0.599,4.298-1.53c1.269-1.132,2.113-2.729,2.113-4.458v-0.268v-9.917v-0.199
	C110.254,104.698,109.409,103.099,108.141,102.036L108.141,102.036z M107.225,106.693v9.917v0.532c0,1.664-1.408,2.995-3.17,2.995
	h-0.494H88.698h-1.832v-3.992h1.832h14.16v-8.654H89.402c-0.281,0-0.492,0-0.704-0.064c-1.409-0.267-2.466-1.466-2.466-2.93v-0.467
	v-9.915v-0.532c0-1.398,1.057-2.597,2.466-2.929c0.212,0,0.423-0.068,0.704-0.068h14.159h3.031v3.994h-3.031H90.599v8.652h12.961
	h0.494c1.762,0,3.17,1.331,3.17,2.93V106.693L107.225,106.693z"/>
</svg>
